<svg height="24" viewBox="0 0 241 24" width="241" xmlns="http://www.w3.org/2000/svg"><g fill="none"><g fill="#0099ad"><path d="m37.670625 20.0625h1.370625c.590625 0 .898125-.354375.898125-.9375v-5.4375h7.063125v5.4375c0 .590625.3075.9375.898125.9375h1.370625c.590625 0 .920625-.354375.920625-.9375v-13.5c0-.590625-.33-.920625-.920625-.920625h-1.370625c-.590625 0-.898125.33-.898125.920625v5.41125h-7.065v-5.41125c0-.590625-.3075-.920625-.898125-.920625h-1.370625c-.590625 0-.920625.33-.920625.920625v13.5c.001875.583125.331875.9375.9225.9375z"/><path d="m58.85625 10.258125c.8162976-.0314912 1.6073488.2862931 2.175.87375.4655971.4971801.7610775 1.1295081.84375 1.805625h-6.04125c.22875-1.640625 1.393125-2.679375 3.0225-2.679375zm-3.046875 4.606875h8.175c.70875 0 .9675-.3075.9675-.969375.0252209-1.6065371-.5963708-3.1557869-1.725-4.299375-1.014375-1.01625-2.5275-1.65375-4.3125-1.65375-3.5625 0-6.1875 2.645625-6.1875 6.21375 0 3.78 2.88375 6.21375 6.4275 6.21375 1.67625 0 3.78-.5625 4.98375-1.79625.260625-.283125.45-.6375 0-1.085625l-.5625-.5625c-.375-.40125-.70875-.33-1.134375 0-.8499135.6853853-1.9081673 1.0604039-3 1.063125-1.835625-.005625-3.4425-1.11375-3.631875-3.12375z"/><path d="m74.95125 18.598125-.425625-.991875c-.21375-.403125-.4725-.639375-1.01625-.3075-.3247084.2123731-.7000086.3346692-1.0875.354375-.920625 0-1.558125-.496875-1.558125-1.81875v-5.334375h2.625c.5625 0 .9225-.33.9225-.898125v-.601875c0-.5625-.354375-.87375-.9225-.87375h-2.625v-3.25125c0-.613125-.3075-1.03875-.9375-.898125l-1.276875.260625c-.590625.118125-.89625.375-.89625.920625v2.9775h-1.15875c-.5625 0-.920625.3075-.920625.87375v.590625c0 .5625.354375.898125.920625.898125h1.15875v5.625c0 2.92875 1.9125 4.2525 4.156875 4.2525.9376937.0254063 1.8607684-.2362733 2.645625-.75.3-.225.654375-.5325.395625-1.0275z"/><path d="m83.1225 20.0625h1.36875c.590625 0 .898125-.354375.898125-.9375v-5.4375h7.065v5.4375c0 .590625.305625.9375.89625.9375h1.370625c.590625 0 .9225-.354375.9225-.9375v-13.5c0-.590625-.331875-.920625-.9225-.920625h-1.370625c-.590625 0-.89625.33-.89625.920625v5.41125h-7.065v-5.41125c0-.590625-.3075-.920625-.898125-.920625h-1.36875c-.590625 0-.9225.33-.9225.920625v13.5c0 .583125.331875.9375.9225.9375z"/><path d="m104.308125 10.258125c.815779-.0316731 1.606325.2861822 2.173125.87375.465864.4939244.763223 1.1227749.849375 1.79625h-6.046875c.23625-1.63125 1.393125-2.67 3.024375-2.67zm-3.04875 4.606875h8.175c.70875 0 .9675-.3075.9675-.969375.024241-1.6059935-.59644-3.1546553-1.723125-4.299375-1.01625-1.01625-2.529375-1.65375-4.32375-1.65375-3.5625 0-6.1875 2.645625-6.1875 6.21375 0 3.78 2.881875 6.21375 6.425625 6.21375 1.67625 0 3.78-.5625 4.98375-1.79625.260625-.283125.45-.6375 0-1.085625l-.5625-.5625c-.375-.40125-.70875-.33-1.125 0-.849914.6853853-1.908167 1.0604039-3 1.063125-1.83375-.005625-3.440625-1.11375-3.63-3.12375z"/><path d="m118.125 10.258125c.815821-.0319144 1.606462.2859791 2.173125.87375.467198.4932309.76533 1.1223301.85125 1.79625h-6.046875c.23625-1.63125 1.395-2.67 3.0225-2.67zm-3.046875 4.606875h8.173125c.70875 0 .969375-.3075.969375-.969375.023742-1.6062633-.597629-3.1549629-1.725-4.299375-1.01625-1.01625-2.5275-1.65375-4.32375-1.65375-3.5625 0-6.1875 2.645625-6.1875 6.21375 0 3.78 2.881875 6.21375 6.425625 6.21375 1.6875 0 3.78-.5625 4.985625-1.79625.260625-.283125.448125-.6375 0-1.085625l-.5625-.5625c-.375-.40125-.70875-.33-1.134375 0-.850062.6851198-1.908219 1.0601043-3 1.063125-1.824375-.005625-3.429375-1.11375-3.61875-3.12375z"/><path d="m133.884375 8.15625c-.481921-.14909828-.984347-.22123499-1.48875-.21375-1.34625 0-2.409375.68625-3.165 1.81875v-.73125c0-.5625-.331875-.898125-.898125-.898125h-.898125c-.5625 0-.898125.33-.898125.898125v10.111875c0 .5625.331875.920625.898125.920625h1.378125c.5625 0 .87375-.354375.87375-.920625v-5.625c0-1.700625.87375-2.881875 2.4375-2.881875.354214.0048567.705192.06821 1.03875.1875.403125.118125.78.04875.9375-.541875l.3075-1.18125c.16125-.6375-.16875-.825-.523125-.943125z"/><path d="m141.013125 10.258125c.816298-.0314912 1.607349.2862931 2.175.87375.467648.4964317.765134 1.1288366.849375 1.805625h-6.0375c.226875-1.640625 1.38375-2.679375 3.013125-2.679375zm-3.046875 4.606875h8.175c.70875 0 .9675-.3075.9675-.969375.025221-1.6065371-.596371-3.1557869-1.725-4.299375-1.014375-1.01625-2.5275-1.65375-4.3125-1.65375-3.5625 0-6.1875 2.645625-6.1875 6.21375 0 3.78 2.88375 6.21375 6.4275 6.21375 1.67625 0 3.78-.5625 4.98375-1.79625.260625-.283125.45-.6375 0-1.085625l-.5625-.5625c-.375-.40125-.70875-.33-1.125 0-.849914.6853853-1.908167 1.0604039-3 1.063125-1.845-.005625-3.451875-1.11375-3.64125-3.12375z"/><path d="m155.896875 7.9425c-1.7475 0-3 .75-3.78 1.89v-.8025c0-.5625-.33-.898125-.898125-.898125h-.898125c-.5625 0-.89625.33-.89625.898125v10.111875c0 .5625.33.920625.89625.920625h1.366875c.5625 0 .87375-.354375.87375-.920625v-5.90625c0-1.56 1.040625-2.59875 2.57625-2.59875s2.480625 1.03875 2.480625 2.59875v5.90625c0 .5625.33.920625.898125.920625h1.36875c.5625 0 .87563-.354375.87563-.920625v-6.1425c.003745-3.024375-1.935005-5.056875-4.863755-5.056875z"/><path d="m166.7025 20.37c.645763.0117634 1.282666-.1515117 1.843125-.4725.354375-.1875.496875-.425625.283125-.969375l-.26625-.928125c-.1875-.496875-.425625-.661875-.826875-.519375-.149468.0664485-.309346.1064181-.4725.118125-.283125 0-.331875-.1875-.331875-.45v-13.0575c0-.613125-.305625-1.03875-.9375-.89625l-1.3125.25875c-.5625.118125-.87375.375-.87375.9225v12.969375c-.009375 1.98375 1.05375 3.024375 2.895 3.024375z"/><path d="m176.38875 17.625c-1.985625 0-3.285-1.535625-3.285-3.4725s1.299375-3.496875 3.285-3.496875c1.771875 0 3.23625 1.2525 3.23625 3.496875 0 2.20125-1.464375 3.4725-3.23625 3.4725zm5.29875-9.5625h-.87375c-.5625 0-.898125.331875-.898125.898125v.54375c-1.086879-1.00384981-2.512341-1.56091174-3.991875-1.56000112-3.4725 0-5.930625 2.71687612-5.930625 6.21375112s2.458125 6.21375 5.930625 6.21375c1.524807.0171389 2.981723-.6295431 3.991875-1.771875v.54375c0 .5625.331875.920625.898125.920625h.87375c.5625 0 .898125-.354375.898125-.920625v-10.185c-.0075-.56625-.335625-.89625-.898125-.89625z"/><path d="m192.165 7.9425c-1.7475 0-3 .75-3.78 1.89v-.8025c0-.5625-.33-.898125-.898125-.898125h-.898125c-.5625 0-.89625.33-.89625.898125v10.111875c0 .5625.33.920625.89625.920625h1.370625c.5625 0 .87375-.354375.87375-.920625v-5.90625c0-1.56 1.040625-2.59875 2.57625-2.59875s2.480625 1.03875 2.480625 2.59875v5.90625c0 .5625.33.920625.898125.920625h1.36875c.5625 0 .875625-.354375.875625-.920625v-6.1425c0-3.024375-1.93875-5.056875-4.8675-5.056875z"/><path d="m205.6875 17.625c-1.98375 0-3.283125-1.535625-3.283125-3.4725s1.299375-3.496875 3.283125-3.496875c1.79625 0 3.260625 1.2525 3.260625 3.496875s-1.464375 3.4725-3.260625 3.4725zm5.26875-14.41125-1.3125.23625c-.5625.1425-.875625.375-.875625.9225v4.725c-1.019081-.75255968-2.25254-1.1586745-3.519375-1.15875-3.4725 0-5.953125 2.716875-5.953125 6.21375s2.480625 6.21375 5.953125 6.21375c1.499186.0164754 2.933231-.6117731 3.9375-1.725v.496875c0 .5625.3075.920625.87375.920625h.9375c.5625 0 .898201-.354375.898201-.920625v-15.046875c.005549-.613125-.301951-.991875-.939451-.87375z"/><path d="m220.54125 10.258125c.815821-.0319144 1.606462.2859791 2.173125.87375.465864.4939244.763223 1.1227749.849375 1.79625h-6.046875c.23625-1.63125 1.393125-2.67 3.024375-2.67zm-3.04125 4.606875h8.175c.70875 0 .9675-.3075.9675-.969375.024241-1.6059935-.59644-3.1546553-1.723125-4.299375-1.01625-1.01625-2.529375-1.65375-4.32375-1.65375-3.5625 0-6.1875 2.645625-6.1875 6.21375 0 3.78 2.881875 6.21375 6.425625 6.21375 1.67625 0 3.78-.5625 4.98375-1.79625.260625-.283125.45-.6375 0-1.085625l-.5625-.5625c-.375-.40125-.70875-.33-1.125 0-.849765.6856511-1.908115 1.0607041-3 1.063125-1.84125-.005625-3.4425-1.11375-3.63-3.12375z"/><path d="m235.423125 7.9425c-1.7475 0-3 .75-3.78 1.89v-.8025c0-.5625-.33-.898125-.898125-.898125h-.89625c-.5625 0-.898125.33-.898125.898125v10.111875c0 .5625.33.920625.898125.920625h1.36875c.5625 0 .875625-.354375.875625-.920625v-5.90625c0-1.56 1.03875-2.59875 2.574375-2.59875s2.480625 1.03875 2.480625 2.59875v5.90625c0 .5625.33.920625.898125.920625h1.370625c.5625 0 .87375-.354375.87375-.920625v-6.1425c0-3.024375-1.936875-5.056875-4.8675-5.056875z"/><path d="m0 12c0-6.627417 5.372583-12 12-12v24c-6.627417 0-12-5.372583-12-12z"/></g><path d="m12 0h12v12c-6.627417 0-12-5.372583-12-12z" fill="#5b2596"/><circle cx="18" cy="18" fill="#8cd301" r="6"/></g></svg>